<?xml version="1.0" standalone="no"?>
<!DOCTYPE svg PUBLIC "-//W3C//DTD SVG 20010904//EN"
 "http://www.w3.org/TR/2001/REC-SVG-20010904/DTD/svg10.dtd">
<svg version="1.0" xmlns="http://www.w3.org/2000/svg"
 width="1024.000000pt" height="1024.000000pt" viewBox="0 0 1024.000000 1024.000000"
 preserveAspectRatio="xMidYMid meet">
<metadata>
Created by potrace 1.14, written by Peter Selinger 2001-2017
</metadata>
<g transform="translate(0.000000,1024.000000) scale(0.100000,-0.100000)"
fill="#000000" stroke="none">
<path d="M5052 9615 c-32 -27 -183 -210 -290 -352 -61 -81 -244 -356 -295
-443 -15 -25 -41 -53 -61 -64 -20 -10 -33 -23 -29 -29 3 -6 1 -7 -5 -3 -25 15
-318 -167 -497 -310 -109 -87 -345 -292 -345 -301 0 -2 30 20 68 50 150 121
374 285 449 329 85 50 326 178 336 178 3 0 -12 -43 -33 -95 -46 -110 -48 -123
-17 -130 50 -11 328 -26 587 -32 294 -6 740 11 751 29 4 7 8 7 10 -1 3 -7 33
-7 104 0 55 6 101 11 102 13 5 4 -191 398 -222 446 l-27 43 243 -6 c259 -6
403 -22 588 -63 205 -46 442 -127 568 -194 45 -24 84 -39 96 -36 10 2 16 2 13
-1 -3 -4 17 -22 45 -40 28 -19 53 -32 57 -29 3 3 0 6 -8 6 -10 0 -10 3 0 15
11 13 15 13 21 3 5 -7 6 -20 4 -28 -3 -8 4 -20 14 -25 80 -43 118 -65 200
-119 52 -33 99 -59 105 -58 6 2 8 1 4 -3 -4 -4 28 -35 70 -70 102 -82 201
-173 292 -270 94 -99 127 -141 227 -281 51 -72 84 -109 93 -106 12 3 12 2 2
-6 -10 -7 -5 -23 24 -72 20 -35 58 -108 84 -164 145 -310 214 -602 227 -956 6
-191 -2 -290 -43 -485 -46 -229 -89 -370 -163 -535 l-46 -105 -7 84 c-17 203
-98 528 -192 769 -147 377 -342 695 -623 1014 -248 280 -581 541 -916 714
-183 94 -256 125 -456 194 l-164 57 -38 104 -37 104 -88 -3 c-49 -2 -90 -5
-92 -7 -2 -2 19 -70 47 -151 58 -173 94 -311 86 -324 -4 -6 -1 -10 5 -10 7 0
10 -6 7 -12 -2 -7 0 -21 5 -31 11 -22 60 -249 54 -254 -2 -2 -16 -5 -30 -7
-44 -5 -42 -16 3 -16 l42 0 -2 -55 c-2 -51 -10 -67 -23 -46 -4 5 0 11 6 14 9
3 10 8 3 15 -6 6 -15 8 -21 4 -15 -10 3 -92 22 -92 8 0 14 5 14 12 0 23 12 -1
25 -53 15 -56 7 -85 -17 -61 -18 18 -23 15 -26 -16 -10 -76 -7 -96 13 -100 45
-7 47 -11 24 -41 -26 -36 -35 -33 -56 21 -14 35 -17 38 -26 22 -6 -11 -17 -24
-25 -30 -21 -15 6 -110 31 -106 9 2 17 -2 17 -9 0 -7 9 -9 22 -6 12 4 28 1 36
-6 8 -6 22 -12 31 -12 24 0 30 -180 6 -189 -9 -3 -13 -2 -10 4 3 6 -1 10 -9
10 -18 0 -20 -8 -6 -30 6 -9 5 -17 -3 -22 -9 -6 -8 -12 5 -21 16 -13 16 -15
-3 -30 -24 -21 -24 -28 0 -59 19 -24 19 -24 -1 -37 -17 -10 -23 -10 -39 5 -16
15 -19 15 -19 2 0 -9 14 -21 30 -28 17 -7 30 -19 30 -26 0 -21 17 -17 23 6 3
11 13 20 23 20 16 0 16 -18 11 -272 -6 -261 -13 -362 -38 -546 -11 -80 -12
-82 -30 -66 -10 9 -25 14 -34 11 -19 -8 -20 -27 -1 -27 7 0 17 -10 20 -22 7
-22 7 -22 16 -3 8 19 9 19 9 -2 1 -27 -15 -29 -41 -6 -25 23 -34 9 -14 -22 16
-24 16 -25 -4 -25 -15 0 -20 -7 -20 -29 0 -23 6 -31 31 -41 31 -13 31 -14 24
-69 -5 -44 -67 -366 -92 -479 -5 -20 -10 -22 -32 -17 -368 93 -785 108 -1204
45 -70 -11 -155 -27 -188 -35 -33 -9 -80 -20 -105 -24 -42 -8 -45 -7 -50 16
-4 13 -8 22 -11 19 -7 -7 42 -181 98 -352 54 -162 57 -168 164 -251 l49 -39
72 28 c126 49 233 63 479 63 238 0 331 -13 449 -60 l60 -24 69 56 c38 30 75
70 82 87 17 41 86 282 124 431 100 399 204 958 247 1328 14 120 16 205 10 542
-6 417 -13 530 -46 753 -24 161 -24 162 -5 162 8 0 15 -9 15 -19 0 -25 11 -32
63 -36 23 -2 41 -7 40 -12 -1 -5 33 -24 75 -42 109 -48 248 -123 365 -197 55
-35 105 -64 111 -64 6 0 3 5 -6 11 -24 14 -22 31 5 57 25 24 56 31 40 10 -13
-18 -14 -58 -1 -58 6 0 8 -11 5 -29 -5 -25 -1 -32 36 -59 23 -16 62 -51 87
-76 25 -25 53 -49 63 -52 18 -6 24 -34 7 -34 -5 0 -10 -5 -10 -11 0 -7 10 -5
25 5 24 16 26 15 65 -21 23 -20 48 -50 56 -66 14 -27 17 -28 33 -13 10 9 21
16 25 16 5 0 -2 -8 -15 -19 l-23 -18 98 -118 c53 -64 104 -128 113 -141 15
-24 17 -24 35 -7 12 10 17 25 14 38 -5 18 -3 18 15 -4 25 -30 24 -36 -5 -59
l-24 -19 57 -89 c128 -199 219 -396 301 -648 138 -429 180 -852 124 -1259 -14
-108 -86 -435 -124 -564 l-18 -63 24 0 c30 0 30 -11 -1 -48 -30 -36 -30 -44
-6 -99 21 -45 16 -53 -30 -53 -11 0 -23 -10 -28 -23 -5 -13 -20 -31 -34 -40
-23 -15 -117 -181 -117 -206 0 -15 37 4 64 31 19 21 30 19 21 -3 -3 -8 -25
-22 -50 -32 -47 -20 -82 -58 -165 -177 l-49 -73 20 -26 21 -26 -26 -21 c-13
-12 -31 -24 -38 -26 -10 -4 -8 -10 6 -27 15 -16 16 -21 5 -22 -19 -2 -21 -1
-43 7 -15 6 -18 4 -13 -9 9 -23 -42 -84 -55 -65 -7 9 -8 8 -4 -6 4 -12 -6 -37
-27 -70 -19 -28 -42 -68 -52 -88 -9 -21 -22 -38 -27 -38 -5 0 -7 4 -3 10 9 15
-6 60 -24 69 -12 7 -40 -12 -121 -86 -58 -52 -148 -126 -200 -165 -119 -89
-113 -84 -106 -96 4 -6 20 -3 43 8 21 10 41 16 45 13 5 -2 8 1 8 7 0 6 5 8 10
5 6 -3 10 -1 10 5 0 6 5 8 10 5 12 -7 14 -26 3 -23 -10 3 -77 -20 -111 -38
-22 -11 -26 -20 -25 -51 l2 -38 -17 37 c-20 44 -47 52 -40 13 3 -15 -1 -30 -9
-37 -12 -10 -13 -7 -8 14 4 14 3 28 -2 31 -13 8 -75 -31 -68 -43 3 -5 0 -7 -8
-4 -8 3 -55 -16 -103 -42 -139 -74 -135 -70 -123 -100 11 -32 13 -30 -28 -39
-28 -6 -33 -4 -33 13 0 10 -3 21 -6 24 -3 4 -39 -8 -80 -25 -79 -33 -90 -50
-59 -93 8 -12 11 -24 8 -28 -11 -11 -41 -7 -46 7 -3 9 -9 8 -23 -4 -19 -15
-69 -24 -60 -11 2 4 -11 7 -29 8 -19 0 -32 -3 -29 -8 3 -4 1 -8 -5 -8 -6 0 -7
-8 -2 -22 5 -15 3 -27 -8 -38 -9 -9 -22 -25 -29 -36 -7 -10 -10 -13 -7 -7 4 8
-1 13 -11 13 -13 0 -14 3 -5 14 9 11 7 15 -9 19 -11 3 -20 4 -20 4 4 -34 69
-359 72 -363 8 -7 184 39 303 79 165 56 362 143 452 198 18 12 33 18 33 15 0
-12 -145 -98 -277 -165 -159 -79 -292 -136 -413 -177 -47 -16 -86 -30 -88 -30
-2 -1 2 -26 8 -55 6 -30 13 -67 15 -82 5 -44 16 -97 19 -97 2 0 48 25 102 55
211 116 618 412 799 580 l40 37 -41 -31 c-102 -76 -374 -241 -374 -227 0 2 33
26 73 52 39 26 130 94 200 151 71 57 159 124 195 150 235 163 458 364 609 548
41 50 88 107 106 129 52 62 154 213 223 328 291 489 447 1039 460 1623 2 105
4 193 4 196 0 3 34 59 75 123 95 149 170 287 207 384 146 379 194 650 185
1037 -8 309 -40 500 -129 773 -142 432 -409 808 -747 1050 -226 162 -578 353
-831 451 -57 23 -107 41 -111 41 -14 0 -15 -36 -1 -50 11 -10 12 -15 4 -18 -7
-2 -9 -9 -6 -14 4 -7 2 -8 -4 -4 -7 4 -12 15 -12 24 0 12 -3 13 -11 5 -8 -8
-7 -17 3 -32 8 -12 17 -19 20 -16 2 3 5 -1 5 -9 0 -17 -23 -10 -31 9 -3 8 -13
11 -25 8 -13 -3 -21 -1 -21 6 0 7 4 10 9 6 10 -5 28 35 20 45 -2 3 -19 5 -38
5 -19 0 -36 5 -38 11 -2 6 10 8 32 6 31 -4 35 -2 35 19 -1 21 -2 22 -11 7 -11
-20 -34 -24 -44 -8 -4 6 -3 10 2 9 19 -3 33 2 33 12 0 7 -10 9 -25 7 -13 -3
-22 -2 -20 3 7 11 -32 22 -46 13 -7 -4 -9 -3 -6 3 7 12 -167 56 -308 79 -71
11 -101 12 -103 4 -3 -8 -8 -7 -18 1 -22 18 -74 20 -74 3 0 -8 -4 -14 -10 -14
-5 0 -10 6 -10 14 0 8 -17 16 -47 20 -38 5 -49 3 -56 -10 -8 -13 -11 -14 -18
-3 -6 11 -53 15 -211 17 -216 3 -248 0 -248 -24 0 -8 4 -13 8 -10 4 2 8 -4 8
-15 0 -10 -4 -19 -8 -19 -4 0 -8 7 -8 16 0 9 -5 12 -12 8 -16 -10 -68 -13 -68
-4 0 5 4 10 10 12 6 2 6 8 0 18 -8 12 -11 11 -16 -7 -4 -13 -10 -23 -15 -23
-5 0 -9 10 -9 23 -1 22 -1 22 -16 -3 -8 -14 -13 -18 -10 -8 4 13 -2 16 -37 15
l-41 -1 -96 132 c-130 178 -288 368 -317 381 -33 15 -38 14 -71 -14z m1030
-527 c-7 -7 -12 -8 -12 -2 0 14 12 26 19 19 2 -3 -1 -11 -7 -17z m-337 -37
c17 -28 13 -36 -16 -36 -16 0 -29 3 -29 8 0 7 16 11 33 8 4 0 7 4 7 10 0 7 -9
9 -23 5 -14 -3 -31 1 -43 10 -10 8 -14 13 -9 10 6 -2 17 -1 25 4 17 10 42 1
55 -19z m475 9 c0 -5 -2 -10 -4 -10 -3 0 -8 5 -11 10 -3 6 -1 10 4 10 6 0 11
-4 11 -10z m-550 -30 c0 -5 -5 -10 -11 -10 -5 0 -7 5 -4 10 3 6 8 10 11 10 2
0 4 -4 4 -10z m1119 -27 c1 12 9 17 29 16 23 -2 24 -2 5 -6 -24 -5 -32 -23
-10 -23 6 0 4 -5 -7 -11 -20 -12 -36 2 -35 31 0 10 3 8 9 -5 7 -17 9 -17 9 -2z
m-1065 -5 c-5 -8 -2 -9 10 -5 9 4 15 3 11 -2 -3 -6 -14 -9 -25 -8 -14 1 -16 4
-8 14 13 16 22 17 12 1z m1166 2 c0 -5 -5 -10 -11 -10 -5 0 -7 5 -4 10 3 6 8
10 11 10 2 0 4 -4 4 -10z m-1105 -10 c3 -5 1 -10 -4 -10 -6 0 -11 5 -11 10 0
6 2 10 4 10 3 0 8 -4 11 -10z m-75 -25 c9 5 11 4 6 -3 -11 -18 -36 -14 -36 6
0 13 2 14 9 3 5 -8 14 -10 21 -6z m1190 -37 c0 -6 -7 -5 -15 2 -8 7 -15 17
-15 22 0 6 7 5 15 -2 8 -7 15 -17 15 -22z m-400 -18 c0 -16 -5 -30 -10 -30 -6
0 -9 14 -8 30 1 17 6 30 10 30 4 0 8 -13 8 -30z m308 1 c-7 -11 -16 -18 -20
-15 -4 3 -2 11 5 19 18 21 29 18 15 -4z m129 6 c0 -8 -6 -14 -14 -14 -17 0
-17 14 0 20 6 3 12 6 13 6 0 1 1 -5 1 -12z m-59 -37 c-14 -22 -24 -19 -15 5 4
8 11 15 17 15 6 0 6 -7 -2 -20z m24 -22 c-8 -8 -9 -4 -5 13 4 13 8 18 11 10 2
-7 -1 -18 -6 -23z m145 -27 c18 18 34 -13 17 -35 -12 -17 -14 -17 -20 -3 -3
10 -12 17 -20 17 -8 0 -14 2 -14 4 0 2 -3 13 -7 23 -6 17 -5 17 13 1 14 -12
24 -14 31 -7z m-47 -11 c0 -5 -6 -10 -14 -10 -8 0 -18 5 -21 10 -3 6 3 10 14
10 12 0 21 -4 21 -10z m97 -32 c-3 -8 -6 -5 -6 6 -1 11 2 17 5 13 3 -3 4 -12
1 -19z m33 -6 c0 -15 -2 -15 -10 -2 -13 20 -13 33 0 25 6 -3 10 -14 10 -23z
m-92 -18 c-4 -3 -12 5 -18 18 -12 22 -12 22 6 6 10 -10 15 -20 12 -24z m65 -8
c4 -10 1 -13 -8 -9 -8 3 -12 9 -9 14 7 12 11 11 17 -5z m372 -26 c3 -5 1 -10
-4 -10 -6 0 -11 5 -11 10 0 6 2 10 4 10 3 0 8 -4 11 -10z m115 -124 c0 -3 -4
-8 -10 -11 -5 -3 -10 -1 -10 4 0 6 5 11 10 11 6 0 10 -2 10 -4z m-6 -61 c-5
-12 -10 -13 -20 -4 -19 15 -18 19 6 19 13 0 18 -5 14 -15z m0 -62 c-7 -7 -18
-13 -25 -13 -7 0 -4 6 7 15 19 14 19 14 -1 15 -16 0 -17 2 -6 9 21 13 42 -9
25 -26z m70 19 c3 -5 -1 -9 -9 -9 -8 0 -12 4 -9 9 3 4 7 8 9 8 2 0 6 -4 9 -8z
m126 4 c0 -9 -30 -14 -35 -6 -4 6 3 10 14 10 12 0 21 -2 21 -4z m-160 -35 c0
-5 -7 -14 -15 -21 -12 -10 -21 -10 -38 -1 l-22 11 23 -6 c15 -3 24 0 28 10 7
17 24 22 24 7z m-110 -31 c0 -5 -4 -10 -10 -10 -5 0 -10 5 -10 10 0 6 5 10 10
10 6 0 10 -4 10 -10z m157 -5 c0 -17 -13 -20 -21 -6 -4 5 0 12 6 14 7 3 13 6
14 6 0 1 1 -6 1 -14z m-1627 -415 c0 -5 -2 -10 -4 -10 -3 0 -8 5 -11 10 -3 6
-1 10 4 10 6 0 11 -4 11 -10z m470 -286 c0 -2 -7 -4 -15 -4 -8 0 -15 4 -15 10
0 5 7 7 15 4 8 -4 15 -8 15 -10z m1975 6 c3 -5 1 -10 -4 -10 -6 0 -11 5 -11
10 0 6 2 10 4 10 3 0 8 -4 11 -10z m9 -69 c3 -4 3 -11 0 -14 -8 -7 -44 4 -44
14 0 12 37 12 44 0z m-2090 -22 c-3 -5 -16 -8 -30 -7 -22 2 -23 4 -9 15 18 12
48 7 39 -8z m146 -53 c0 -17 -27 -29 -35 -16 -4 6 -3 15 0 20 9 15 35 12 35
-4z m1940 -44 c0 -13 -12 -22 -22 -16 -10 6 -1 24 13 24 5 0 9 -4 9 -8z
m-1685 -72 c3 -6 -1 -7 -9 -4 -18 7 -21 14 -7 14 6 0 13 -4 16 -10z m-17 -33
c4 -19 -6 -21 -27 -8 -16 10 -5 34 12 28 7 -2 13 -11 15 -20z m-793 -37 c3 -5
2 -10 -4 -10 -5 0 -13 5 -16 10 -3 6 -2 10 4 10 5 0 13 -4 16 -10z m1048 -173
c-3 -5 -9 -3 -14 4 -4 7 -5 17 -2 22 3 5 9 3 14 -4 4 -7 5 -17 2 -22z m1678
-110 c-13 -13 -26 -3 -16 12 3 6 11 8 17 5 6 -4 6 -10 -1 -17z m-1420 -124
c13 -16 12 -17 -3 -4 -10 7 -18 15 -18 17 0 8 8 3 21 -13z m181 -88 c9 -17 9
-18 -3 -8 -8 6 -22 26 -32 45 l-19 33 21 -25 c12 -14 27 -34 33 -45z m-128 19
c3 -8 2 -12 -4 -9 -6 3 -10 10 -10 16 0 14 7 11 14 -7z m29 -54 c-4 -4 -19
-11 -33 -15 l-25 -6 25 20 c22 18 53 19 33 1z m137 -15 c14 -19 14 -19 -2 -6
-10 7 -18 18 -18 24 0 6 1 8 3 6 1 -2 9 -13 17 -24z m-93 -75 c-18 -16 -23
-16 -25 -4 -6 24 18 46 34 33 11 -9 10 -14 -9 -29z m191 -75 c-3 -3 -9 2 -12
12 -6 14 -5 15 5 6 7 -7 10 -15 7 -18z m-1578 -61 c0 -31 -2 -35 -15 -24 -18
15 -19 32 -3 48 17 17 18 16 18 -24z m1440 15 c0 -6 -4 -7 -10 -4 -5 3 -10 11
-10 16 0 6 5 7 10 4 6 -3 10 -11 10 -16z m1300 -332 c-35 -401 -127 -693 -343
-1082 l-61 -110 -8 44 c-7 39 -3 53 28 115 20 39 40 76 44 81 33 42 159 321
196 433 94 290 115 397 146 772 1 14 4 -9 6 -50 2 -41 -2 -133 -8 -203z
m-1160 173 c0 -5 -7 -7 -15 -4 -8 4 -15 8 -15 10 0 2 7 4 15 4 8 0 15 -4 15
-10z m59 -120 c11 -24 11 -24 -3 -6 -9 11 -16 24 -16 30 0 12 5 7 19 -24z
m129 -315 c-3 -3 -9 2 -12 12 -6 14 -5 15 5 6 7 -7 10 -15 7 -18z m62 -155 c0
-5 -2 -10 -4 -10 -3 0 -8 5 -11 10 -3 6 -1 10 4 10 6 0 11 -4 11 -10z m35
-130 c3 -5 1 -10 -4 -10 -6 0 -11 5 -11 10 0 6 2 10 4 10 3 0 8 -4 11 -10z
m-2360 -1115 c89 -23 215 -72 150 -59 -98 19 -402 85 -410 89 -33 14 186 -12
260 -30z m2660 25 c3 -5 1 -10 -4 -10 -6 0 -11 5 -11 10 0 6 2 10 4 10 3 0 8
-4 11 -10z m-55 -394 c0 -3 -4 -8 -10 -11 -5 -3 -10 -1 -10 4 0 6 5 11 10 11
6 0 10 -2 10 -4z m0 -146 c0 -5 -8 -10 -17 -10 -15 0 -16 2 -3 10 19 12 20 12
20 0z m-20 -110 c0 -19 -11 -26 -23 -14 -8 8 3 34 14 34 5 0 9 -9 9 -20z
m-220 -49 c0 -6 -4 -13 -10 -16 -5 -3 -10 1 -10 9 0 9 5 16 10 16 6 0 10 -4
10 -9z m-25 -31 c3 -5 1 -10 -4 -10 -6 0 -11 5 -11 10 0 6 2 10 4 10 3 0 8 -4
11 -10z m155 -16 c0 -8 -5 -12 -10 -9 -6 4 -8 11 -5 16 9 14 15 11 15 -7z
m-51 -28 c-7 -14 -16 -26 -21 -26 -5 0 -1 13 8 30 21 35 30 33 13 -4z m-112
-16 c-4 -35 -17 -53 -17 -22 0 21 9 52 16 52 2 0 2 -14 1 -30z m263 -15 c0 -8
-2 -15 -4 -15 -2 0 -6 7 -10 15 -3 8 -1 15 4 15 6 0 10 -7 10 -15z m-270 -45
c0 -5 -4 -10 -10 -10 -5 0 -10 5 -10 10 0 6 5 10 10 10 6 0 10 -4 10 -10z
m238 -22 c-6 -18 -28 -21 -28 -4 0 9 7 16 16 16 9 0 14 -5 12 -12z m-253 -28
c-4 -12 -9 -19 -12 -17 -3 3 -2 15 2 27 4 12 9 19 12 17 3 -3 2 -15 -2 -27z
m138 -11 c-26 -44 -42 -56 -54 -38 -13 21 -12 25 24 48 44 28 51 26 30 -10z
m-224 -3 c-11 -11 -59 -17 -59 -8 0 6 12 12 28 14 28 4 39 1 31 -6z m10 -81
c-15 -33 -24 -44 -29 -34 -5 8 -3 17 6 24 8 6 16 17 17 25 3 19 18 43 23 37 2
-2 -5 -25 -17 -52z m191 -30 c-7 -8 -17 -15 -22 -15 -6 0 -5 7 2 15 7 8 17 15
22 15 6 0 5 -7 -2 -15z m24 -36 c11 1 16 -2 12 -8 -11 -17 -56 -13 -56 5 0 10
4 12 13 7 6 -4 20 -6 31 -4z m-261 -24 c-3 -9 -8 -14 -10 -11 -3 3 -2 9 2 15
9 16 15 13 8 -4z m132 -5 c-3 -5 -11 -10 -16 -10 -6 0 -7 5 -4 10 3 6 11 10
16 10 6 0 7 -4 4 -10z m85 -24 c0 -3 -4 -8 -10 -11 -5 -3 -10 -1 -10 4 0 6 5
11 10 11 6 0 10 -2 10 -4z m-250 -33 c0 -5 -8 -18 -18 -30 l-17 -23 -1 25 c-1
14 2 23 6 20 5 -3 11 -1 15 5 7 12 15 13 15 3z m229 -37 c-9 -8 -10 -7 -5 7 3
10 7 24 7 30 1 7 3 4 6 -7 3 -10 -1 -23 -8 -30z m-333 -93 c-7 -7 -26 7 -26
19 0 6 6 6 15 -2 9 -7 13 -15 11 -17z m-466 -509 c0 -13 -5 -24 -11 -24 -5 0
-9 -8 -8 -17 2 -30 -1 -39 -10 -25 -7 11 -23 18 -53 21 -3 1 10 19 29 41 38
42 53 44 53 4z m113 -74 c-3 -11 -9 -17 -14 -14 -5 3 -9 0 -9 -5 0 -6 -5 -11
-12 -11 -6 0 -1 11 12 25 28 30 30 30 23 5z m-278 -76 c19 2 42 9 50 16 10 8
19 9 25 4 5 -5 -26 -26 -76 -52 -46 -23 -84 -38 -84 -32 0 6 10 15 23 20 12 5
18 9 13 9 -5 1 -3 8 4 16 10 12 9 16 -4 21 -14 5 -14 9 -4 22 11 13 13 13 16
-6 3 -17 9 -20 37 -18z m250 -74 c-3 -5 -11 -10 -16 -10 -6 0 -7 5 -4 10 3 6
11 10 16 10 6 0 7 -4 4 -10z m-591 -115 c3 -9 0 -15 -9 -15 -8 0 -15 7 -15 15
0 8 4 15 9 15 5 0 11 -7 15 -15z m-424 -209 c0 -10 -7 -12 -22 -8 -21 5 -21 6
-2 13 10 4 20 8 22 8 1 1 2 -5 2 -13z m-40 -185 c0 -12 -20 -25 -27 -18 -7 7
6 27 18 27 5 0 9 -4 9 -9z m-185 -119 c-3 -3 -11 0 -18 7 -9 10 -8 11 6 5 10
-3 15 -9 12 -12z m32 -144 c-3 -8 -6 -5 -6 6 -1 11 2 17 5 13 3 -3 4 -12 1
-19z"/>
<path d="M6987 8970 c-6 -24 8 -36 17 -14 8 22 7 34 -3 34 -5 0 -11 -9 -14
-20z"/>
<path d="M3179 8811 c-68 -68 -17 -181 82 -181 43 0 99 56 99 100 0 97 -114
148 -181 81z"/>
<path d="M2400 8782 c-58 -58 -33 -138 47 -149 78 -10 128 47 97 112 -20 44
-34 55 -78 62 -30 5 -40 1 -66 -25z"/>
<path d="M5395 8328 c-88 -5 -304 -8 -481 -6 l-321 3 -47 -165 c-128 -456
-186 -886 -186 -1376 0 -412 36 -766 121 -1204 29 -149 99 -433 109 -444 4 -4
46 -3 93 3 239 32 628 31 864 -2 l91 -13 31 140 c181 836 216 1632 100 2311
-29 170 -82 404 -130 569 -43 150 -58 189 -74 191 -5 1 -82 -2 -170 -7z m-262
-545 c-7 -2 -21 -2 -30 0 -10 3 -4 5 12 5 17 0 24 -2 18 -5z m64 -9 c-3 -3
-12 -4 -19 -1 -8 3 -5 6 6 6 11 1 17 -2 13 -5z m78 -148 c125 -62 210 -175
236 -317 23 -128 -21 -260 -120 -360 -248 -247 -665 -113 -720 231 -28 174 63
356 217 438 81 43 122 52 225 48 77 -3 97 -8 162 -40z m200 -6 c21 -22 37 -40
34 -40 -3 0 -23 18 -44 40 -21 22 -37 40 -34 40 3 0 23 -18 44 -40z m65 -81
c15 -28 5 -23 -15 7 -9 15 -12 23 -6 20 6 -4 16 -16 21 -27z m40 -73 c0 -12
-5 -7 -19 24 -11 24 -11 24 3 6 9 -11 16 -24 16 -30z m27 -88 c-3 -8 -6 -5 -6
6 -1 11 2 17 5 13 3 -3 4 -12 1 -19z m20 -180 c-2 -18 -4 -6 -4 27 0 33 2 48
4 33 2 -15 2 -42 0 -60z m-10 -80 c-3 -7 -5 -2 -5 12 0 14 2 19 5 13 2 -7 2
-19 0 -25z m-10 -40 c-3 -8 -6 -5 -6 6 -1 11 2 17 5 13 3 -3 4 -12 1 -19z
m-21 -55 c-8 -15 -15 -25 -16 -21 0 12 23 58 27 54 3 -2 -2 -17 -11 -33z m-41
-82 c-8 -17 -19 -33 -25 -36 -5 -3 -1 10 11 29 25 43 36 48 14 7z m-35 -54 c0
-1 -24 -25 -52 -52 l-53 -50 50 53 c46 48 55 57 55 49z m-290 -119 c-36 -15
-189 -22 -230 -11 -27 8 -14 9 55 6 50 -3 108 0 130 5 53 13 76 13 45 0z m150
-3 c0 -6 -76 -45 -87 -45 -4 1 12 12 37 25 50 27 50 27 50 20z m-163 -71 c-3
-3 -12 -4 -19 -1 -8 3 -5 6 6 6 11 1 17 -2 13 -5z m-59 -11 c-10 -2 -28 -2
-40 0 -13 2 -5 4 17 4 22 1 32 -1 23 -4z"/>
<path d="M4045 8101 c-135 -46 -203 -73 -320 -126 -31 -14 -61 -23 -68 -19 -6
4 -9 4 -6 0 3 -3 -6 -19 -20 -35 -15 -17 -29 -24 -32 -18 -4 6 -42 -9 -95 -38
-186 -101 -394 -248 -568 -401 -85 -75 -316 -320 -316 -335 0 -4 10 -9 22 -11
12 -2 24 -9 26 -17 4 -11 -4 -13 -36 -8 -40 7 -40 7 -92 -59 -167 -213 -351
-542 -469 -841 -76 -192 -161 -505 -186 -688 -8 -61 -2 -49 -140 -270 -141
-225 -204 -353 -288 -575 -132 -351 -177 -596 -177 -970 0 -453 90 -849 285
-1245 135 -276 312 -524 515 -725 156 -154 288 -244 539 -370 386 -194 757
-305 1136 -340 217 -20 618 -6 654 24 11 8 15 8 18 -2 3 -6 9 -10 14 -6 5 3
23 7 39 9 52 7 116 28 100 33 -15 5 -29 22 -27 32 2 16 -27 51 -38 46 -8 -3
-16 3 -18 12 -3 13 -7 10 -15 -10 -12 -28 -42 -39 -42 -15 -1 6 -6 2 -13 -11
-7 -12 -16 -19 -20 -16 -4 4 -8 2 -8 -4 -1 -7 -2 -16 -3 -22 -2 -20 -21 -10
-24 14 -2 17 -16 30 -53 47 -31 15 -49 30 -49 41 0 10 -17 33 -37 53 l-38 34
38 1 c27 0 37 4 37 16 0 13 -8 14 -57 7 -32 -4 -137 -7 -233 -6 -258 2 -484
40 -748 125 -76 24 -96 27 -103 17 -5 -8 -3 -17 4 -22 8 -6 6 -7 -6 -3 -10 3
-25 6 -33 6 -9 0 -13 4 -10 8 3 5 -6 15 -20 22 -18 10 -21 16 -12 22 8 6 4 7
-11 3 -19 -6 -23 -4 -18 8 7 19 -26 29 -44 13 -9 -8 -10 -7 -5 8 5 14 2 17 -9
12 -9 -3 -13 -2 -10 4 9 14 -34 32 -62 25 -20 -5 -24 -3 -20 8 6 17 -38 41
-55 31 -6 -4 -8 -3 -5 3 3 5 -20 25 -51 43 -177 105 -359 247 -526 410 -205
200 -364 416 -495 673 -79 157 -115 252 -176 462 -61 212 -85 365 -92 580 -11
349 30 574 191 1031 42 122 177 424 189 424 1 0 0 -78 -1 -172 -18 -881 331
-1735 965 -2360 195 -192 450 -397 474 -382 7 4 9 3 5 -4 -15 -25 364 -233
601 -328 139 -56 388 -134 427 -134 20 0 24 13 55 203 18 111 35 214 38 228 5
25 2 26 -114 56 -141 37 -280 87 -422 154 -57 27 -109 49 -114 49 -6 0 -19 -7
-28 -16 -10 -9 -33 -18 -51 -20 -18 -2 -28 0 -23 4 6 4 11 16 11 27 1 11 5 28
8 37 9 20 -43 51 -71 42 -13 -4 -15 -3 -5 4 11 7 5 15 -25 32 -73 45 -258 180
-333 244 -67 57 -76 62 -88 47 -12 -14 -12 -14 -3 4 8 17 -6 36 -108 140 -142
146 -212 232 -321 393 -45 67 -86 122 -90 122 -4 0 -5 -11 -3 -24 6 -30 -31
-57 -41 -30 -9 24 -7 27 9 14 13 -11 15 -8 16 21 2 53 -2 71 -17 86 -8 8 -14
21 -14 29 0 11 -7 11 -37 -4 -26 -12 -37 -14 -40 -5 -2 7 -11 9 -19 6 -8 -3
-14 -1 -14 4 0 5 -8 9 -17 10 -10 1 -27 2 -38 4 -11 1 -30 -1 -42 -5 -17 -5
-24 -1 -37 25 -20 41 -20 51 0 47 10 -2 19 3 22 11 3 9 0 11 -8 6 -10 -6 -12
-4 -7 9 4 10 7 20 7 22 0 3 5 2 10 -1 6 -3 10 -17 10 -29 0 -20 4 -23 32 -20
36 4 50 14 30 21 -10 4 -4 15 19 39 18 18 37 30 42 27 12 -7 10 -3 -39 112
-21 48 -42 85 -50 85 -16 0 -19 17 -4 22 11 3 -27 129 -41 138 -5 3 -8 14 -7
25 0 11 -11 67 -25 125 -74 299 -91 438 -90 748 1 131 -3 232 -8 232 -5 0 -9
13 -9 29 0 20 6 30 20 34 15 4 20 14 20 40 0 91 97 471 166 651 3 9 1 16 -5
16 -6 0 -11 -6 -11 -14 0 -8 -5 -18 -12 -22 -8 -5 -9 -2 -5 9 9 24 -20 36 -80
33 -29 -2 -58 1 -65 5 -11 7 -11 9 0 9 7 0 11 4 8 9 -8 13 25 24 37 12 10 -10
57 38 57 58 0 6 5 11 11 11 5 0 8 4 5 9 -3 5 1 12 10 15 12 4 15 2 11 -9 -4
-8 -2 -17 3 -20 12 -8 41 6 34 16 -3 5 -9 7 -14 4 -4 -3 -11 2 -14 10 -8 23
15 55 41 55 12 0 29 10 37 22 14 19 14 24 1 38 -20 22 -8 32 19 18 45 -25 82
-14 56 17 -15 19 -3 40 15 25 15 -12 22 -4 54 55 12 22 39 68 60 103 22 34 37
62 33 62 -3 0 3 6 14 14 19 14 19 15 -1 13 -11 -1 -21 5 -23 15 -3 15 2 17 25
12 28 -5 44 9 78 66 7 13 6 13 -7 2 -8 -7 -23 -10 -32 -6 -17 7 -22 24 -6 24
5 0 9 10 7 22 -1 17 4 24 21 26 13 2 29 -2 37 -8 9 -7 20 -8 30 -3 15 9 15 11
1 22 -26 22 -20 44 9 37 14 -4 25 -3 25 1 -1 18 -58 61 -90 68 -19 4 -49 16
-67 27 l-32 19 -57 -77 c-31 -42 -67 -95 -80 -118 -13 -22 -24 -35 -24 -28 0
16 102 182 158 256 46 59 46 75 0 76 -26 0 -31 17 -13 44 16 23 15 24 -4 19
-12 -3 -21 -1 -21 6 0 6 14 11 30 11 28 0 29 -2 18 -20 -11 -17 -10 -22 1 -29
8 -5 20 -7 28 -4 7 3 16 -2 19 -10 4 -12 18 -1 53 41 98 118 385 367 557 483
185 125 441 262 577 309 62 22 68 26 62 47 -7 28 11 31 20 4 5 -16 11 -18 33
-11 72 20 86 35 105 106 9 37 16 68 15 70 -2 1 -66 -19 -143 -45z m-125 -147
c0 -14 -4 -23 -10 -19 -5 3 -10 15 -10 26 0 10 5 19 10 19 6 0 10 -12 10 -26z
m-48 -26 c-7 -29 -18 -30 -30 -3 -10 23 -9 25 12 23 17 -2 22 -7 18 -20z
m-307 -98 c3 -5 4 -14 0 -19 -7 -12 -65 7 -65 20 0 12 57 11 65 -1z m-730
-649 c3 -5 1 -12 -5 -16 -5 -3 -10 1 -10 9 0 18 6 21 15 7z m-125 -291 c0 -5
-4 -10 -10 -10 -5 0 -10 5 -10 10 0 6 5 10 10 10 6 0 10 -4 10 -10z m-232 -69
c-11 -18 -11 -23 2 -31 13 -8 12 -10 -2 -10 -21 0 -25 39 -6 58 17 17 21 7 6
-17z m182 9 c0 -5 -2 -10 -4 -10 -3 0 -8 5 -11 10 -3 6 -1 10 4 10 6 0 11 -4
11 -10z m100 -29 c0 -12 -20 -25 -27 -18 -7 7 6 27 18 27 5 0 9 -4 9 -9z m-75
-120 c3 -5 1 -12 -5 -16 -5 -3 -10 1 -10 9 0 18 6 21 15 7z m-210 -51 c3 -5 1
-10 -4 -10 -6 0 -11 5 -11 10 0 6 2 10 4 10 3 0 8 -4 11 -10z m150 -10 c3 -5
1 -10 -4 -10 -6 0 -11 5 -11 10 0 6 2 10 4 10 3 0 8 -4 11 -10z m40 -34 c16
10 25 12 30 5 4 -7 -3 -11 -17 -11 -18 0 -20 -2 -8 -10 23 -14 5 -22 -31 -12
-20 5 -35 16 -37 26 -4 17 -2 17 18 3 20 -14 25 -14 45 -1z m-50 -62 c28 -11
35 -18 26 -27 -20 -20 -49 -17 -65 8 -27 41 -20 44 39 19z m-270 -244 c18 -8
17 -9 -7 -9 -16 -1 -28 4 -28 9 0 12 8 12 35 0z m-130 -110 c3 -5 1 -10 -4
-10 -6 0 -11 5 -11 10 0 6 2 10 4 10 3 0 8 -4 11 -10z m96 -102 c6 -9 11 -10
17 -2 11 16 72 16 66 0 -7 -17 -95 -20 -106 -3 -6 9 -8 9 -8 0 0 -8 -13 -13
-30 -13 -16 0 -30 5 -30 10 0 6 9 10 21 10 11 0 18 4 15 9 -9 14 46 4 55 -11z
m89 -59 c0 -5 -7 -9 -15 -9 -15 0 -20 12 -9 23 8 8 24 -1 24 -14z m-63 -161
c-3 -8 -6 -5 -6 6 -1 11 2 17 5 13 3 -3 4 -12 1 -19z m-115 -190 c-49 -157
-86 -400 -101 -663 -6 -88 -12 -171 -15 -184 -3 -14 -1 -30 5 -37 8 -10 6 -19
-5 -36 -16 -21 -16 -6 -13 222 6 312 30 461 114 698 31 89 42 89 15 0z m82 63
c3 -5 -3 -11 -13 -14 -14 -3 -18 -1 -14 9 6 16 19 18 27 5z m-34 -151 c0 -5
-8 -10 -17 -10 -15 0 -16 2 -3 10 19 12 20 12 20 0z m-400 -227 c-7 -76 -6
-74 -103 -233 -161 -267 -278 -547 -358 -855 -43 -167 -49 -170 -18 -8 41 216
107 422 196 612 25 53 58 127 74 164 32 77 202 387 212 387 2 0 0 -30 -3 -67z
m326 -260 c-11 -95 -16 -278 -7 -292 5 -8 14 -10 22 -6 8 5 11 5 7 0 -4 -4 -3
-14 4 -22 9 -11 7 -12 -13 -4 l-24 9 8 -127 c7 -115 36 -327 52 -376 5 -15 4
-16 -3 -5 -15 24 -51 181 -67 293 -23 158 -18 418 11 550 9 44 16 31 10 -20z
m-206 -263 c0 -5 -4 -10 -10 -10 -5 0 -10 5 -10 10 0 6 5 10 10 10 6 0 10 -4
10 -10z m0 -130 c0 -5 -4 -10 -9 -10 -6 0 -13 5 -16 10 -3 6 1 10 9 10 9 0 16
-4 16 -10z m20 -60 c0 -5 -4 -10 -10 -10 -5 0 -10 5 -10 10 0 6 5 10 10 10 6
0 10 -4 10 -10z m-45 -120 c-3 -5 -10 -10 -16 -10 -5 0 -9 5 -9 10 0 6 7 10
16 10 8 0 12 -4 9 -10z m332 -72 c-3 -8 -6 -5 -6 6 -1 11 2 17 5 13 3 -3 4
-12 1 -19z m-260 -194 c8 -22 -11 -37 -36 -29 -31 10 -28 45 4 45 14 0 28 -7
32 -16z m-670 -166 c-3 -8 -6 -5 -6 6 -1 11 2 17 5 13 3 -3 4 -12 1 -19z m983
2 c0 -5 -5 -10 -11 -10 -5 0 -7 5 -4 10 3 6 8 10 11 10 2 0 4 -4 4 -10z m37
-56 c-3 -3 -12 -4 -19 -1 -8 3 -5 6 6 6 11 1 17 -2 13 -5z m-92 -54 c3 -5 1
-10 -4 -10 -6 0 -11 5 -11 10 0 6 2 10 4 10 3 0 8 -4 11 -10z m145 -4 c0 -3
-4 -8 -10 -11 -5 -3 -10 -1 -10 4 0 6 5 11 10 11 6 0 10 -2 10 -4z m-146 -247
c-3 -5 -1 -9 4 -9 9 0 36 -50 30 -55 -2 -2 -15 -6 -30 -10 -21 -5 -29 -3 -34
10 -4 9 -10 12 -13 7 -9 -15 -51 -25 -51 -13 0 6 6 11 13 11 18 0 19 40 1 47
-22 8 -16 29 14 43 22 11 24 14 10 17 -22 5 -23 19 -3 27 8 3 15 13 16 23 0
10 11 -6 24 -36 14 -29 22 -57 19 -62z m-114 15 c0 -2 -7 -4 -15 -4 -8 0 -15
4 -15 10 0 5 7 7 15 4 8 -4 15 -8 15 -10z m410 -235 c0 -5 -4 -9 -10 -9 -5 0
-10 7 -10 16 0 8 5 12 10 9 6 -3 10 -10 10 -16z m-40 -19 c0 -5 -7 -10 -16
-10 -8 0 -12 5 -9 10 3 6 10 10 16 10 5 0 9 -4 9 -10z m120 -124 c0 -2 -7 -6
-15 -10 -8 -3 -15 -1 -15 4 0 6 7 10 15 10 8 0 15 -2 15 -4z m110 -30 c0 -3
-4 -8 -10 -11 -5 -3 -10 -1 -10 4 0 6 5 11 10 11 6 0 10 -2 10 -4z m-110 -41
c0 -8 -7 -15 -15 -15 -16 0 -20 12 -8 23 11 12 23 8 23 -8z m0 -50 c-12 -15
-30 -12 -30 6 0 5 10 9 21 9 18 0 19 -2 9 -15z m-180 -5 c0 -5 -4 -10 -10 -10
-5 0 -10 5 -10 10 0 6 5 10 10 10 6 0 10 -4 10 -10z m64 -5 c3 -8 13 -15 22
-15 11 0 14 5 10 16 -5 14 -4 15 9 4 16 -13 21 -31 8 -28 -5 0 -16 -2 -25 -6
-26 -12 -49 0 -41 20 5 13 3 15 -7 9 -9 -5 -11 -4 -6 3 10 16 23 15 30 -3z
m196 -24 c0 -5 -9 -11 -20 -14 -11 -3 -20 -11 -20 -18 0 -10 3 -10 12 -1 7 7
19 12 27 12 11 0 10 -4 -4 -20 -17 -18 -20 -19 -34 -6 -13 14 -13 18 4 36 19
21 35 26 35 11z m-264 -14 c8 3 14 0 14 -6 0 -6 -13 -10 -29 -9 -20 1 -27 6
-24 16 4 9 9 10 16 3 5 -5 16 -7 23 -4z m387 -7 c3 -11 1 -18 -4 -14 -5 3 -9
12 -9 20 0 20 7 17 13 -6z m77 -50 c0 -10 -12 -25 -27 -32 -52 -26 -78 -43
-90 -58 -10 -13 -16 -11 -42 14 -17 17 -31 34 -31 38 0 5 15 15 34 23 19 8 37
19 41 25 3 5 12 10 18 10 8 0 9 -3 1 -8 -5 -4 -10 -16 -10 -28 0 -21 0 -21 32
-2 18 11 38 26 44 33 15 18 30 10 30 -15z m-225 -66 c26 -31 39 -51 29 -44
-17 11 -89 100 -81 100 2 0 25 -25 52 -56z m-1180 16 c3 -5 1 -10 -4 -10 -6 0
-11 5 -11 10 0 6 2 10 4 10 3 0 8 -4 11 -10z m1125 -14 c0 -3 -4 -8 -10 -11
-5 -3 -10 -1 -10 4 0 6 5 11 10 11 6 0 10 -2 10 -4z m105 -105 c-3 -6 3 -14
12 -20 14 -8 16 -12 6 -22 -11 -11 -13 -11 -13 0 0 7 -5 9 -12 5 -7 -5 -9 -2
-5 8 3 9 0 21 -6 27 -8 8 -6 11 7 11 9 0 15 -4 11 -9z m-48 -30 c0 -11 -5 -18
-9 -15 -4 3 -5 11 -1 19 7 21 12 19 10 -4z m193 -148 c0 -20 -3 -24 -11 -16
-7 7 -9 19 -6 27 10 24 17 19 17 -11z m-80 -43 c0 -5 -5 -10 -11 -10 -5 0 -7
5 -4 10 3 6 8 10 11 10 2 0 4 -4 4 -10z m661 -94 c5 3 9 -2 9 -10 0 -9 -5 -16
-11 -16 -7 0 -18 -8 -26 -17 -12 -16 -13 -15 -7 12 9 39 17 52 22 37 2 -7 8
-10 13 -6z m85 -50 c3 -23 -20 -15 -24 8 -3 11 1 17 9 14 7 -2 13 -12 15 -22z
m-1986 -44 c0 -5 -7 -9 -15 -9 -8 0 -12 4 -9 9 3 4 9 8 15 8 5 0 9 -4 9 -8z
m1417 -48 c-9 -9 -28 6 -21 18 4 6 10 6 17 -1 6 -6 8 -13 4 -17z m767 -20 c9
-24 8 -26 -14 -19 -13 4 -20 2 -20 -6 0 -7 -3 -10 -6 -7 -7 8 14 48 25 48 5 0
12 -7 15 -16z m-419 -3 c3 -5 1 -12 -5 -16 -5 -3 -10 1 -10 9 0 18 6 21 15 7z
m-61 -56 c-4 -8 -10 -15 -15 -15 -5 0 -9 7 -9 15 0 8 7 15 15 15 9 0 12 -6 9
-15z m166 -32 c0 -7 5 -13 11 -13 7 0 9 -10 7 -25 -3 -14 -1 -25 3 -25 5 0 9
-7 9 -15 0 -27 -29 -16 -32 13 -2 21 -8 27 -28 27 -28 0 -43 39 -26 67 9 15
11 15 33 0 12 -10 23 -23 23 -29z m-277 -24 c4 -16 3 -18 -9 -8 -7 6 -11 15
-8 20 8 13 11 11 17 -12z m222 -31 c14 -21 14 -23 -2 -29 -16 -5 -15 -7 5 -18
12 -6 22 -17 22 -23 0 -9 -3 -9 -12 0 -18 18 -27 15 -21 -8 4 -13 0 -20 -9
-20 -23 0 -28 11 -16 34 7 11 11 25 10 30 -2 4 2 14 8 21 9 11 7 12 -9 8 -20
-5 -28 6 -14 20 11 12 21 8 38 -15z m40 1 c11 -17 -1 -21 -15 -4 -8 9 -8 15
-2 15 6 0 14 -5 17 -11z m-150 -9 c3 -5 -1 -10 -9 -10 -9 0 -16 5 -16 10 0 6
4 10 9 10 6 0 13 -4 16 -10z m-1565 -40 c0 -5 -2 -10 -4 -10 -3 0 -8 5 -11 10
-3 6 -1 10 4 10 6 0 11 -4 11 -10z m1630 -10 c0 -5 -9 -14 -21 -20 -19 -11
-20 -10 -9 9 11 22 30 29 30 11z m90 -59 c0 -23 -22 -40 -28 -23 -2 7 -8 9
-14 6 -5 -3 -4 3 4 15 16 26 38 27 38 2z m-1413 -85 c-7 -14 -13 -23 -15 -21
-7 6 9 45 18 45 4 0 3 -11 -3 -24z m42 -14 c-7 -3 -17 -10 -21 -16 -5 -7 -8
-5 -8 5 0 22 9 29 28 21 13 -5 14 -6 1 -10z m31 -16 c0 -2 -7 -6 -15 -10 -8
-3 -15 -1 -15 4 0 6 7 10 15 10 8 0 15 -2 15 -4z m86 -78 c4 -7 4 -10 -1 -6
-4 4 -14 3 -22 -3 -13 -11 -19 2 -6 14 10 11 21 8 29 -5z m-1 -28 c-3 -5 -14
-10 -23 -9 -14 0 -13 2 3 9 27 11 27 11 20 0z m37 -42 c-7 -7 -12 -8 -12 -2 0
6 3 14 7 17 3 4 9 5 12 2 2 -3 -1 -11 -7 -17z m-130 -19 c11 -3 15 -9 10 -17
-6 -9 -15 -5 -33 15 -13 15 -17 22 -9 16 8 -6 23 -12 32 -14z m65 -45 c-3 -3
-12 -4 -19 -1 -8 3 -5 6 6 6 11 1 17 -2 13 -5z m71 -72 c-9 -2 -19 -11 -21
-20 -3 -9 -4 -3 -3 14 1 29 3 31 21 21 17 -10 18 -12 3 -15z m46 -30 c-5 -4
-12 -11 -15 -15 -3 -5 -9 -2 -12 5 -3 9 3 14 15 15 11 1 16 -1 12 -5z m71 -52
c3 -6 -1 -7 -9 -4 -18 7 -21 14 -7 14 6 0 13 -4 16 -10z m158 -7 c-7 -2 -19
-2 -25 0 -7 3 -2 5 12 5 14 0 19 -2 13 -5z m-182 -30 c13 -16 12 -17 -3 -4
-14 11 -18 11 -18 1 0 -8 -3 -11 -6 -7 -5 5 3 27 10 27 2 0 10 -8 17 -17z m79
1 c0 -2 -7 -4 -15 -4 -8 0 -15 4 -15 10 0 5 7 7 15 4 8 -4 15 -8 15 -10z m24
-40 c3 -8 2 -12 -4 -9 -6 3 -10 10 -10 16 0 14 7 11 14 -7z m86 -38 c0 -3 -4
-8 -10 -11 -5 -3 -10 -1 -10 4 0 6 5 11 10 11 6 0 10 -2 10 -4z m520 -197 c0
-5 -2 -9 -4 -9 -2 0 -13 -3 -23 -6 -15 -5 -15 -4 -3 5 11 8 12 11 2 11 -7 0
-11 4 -7 10 7 11 35 2 35 -11z m27 -35 c3 -8 11 -13 19 -10 14 5 37 -17 27
-27 -3 -4 -1 -7 6 -7 7 0 9 -4 6 -10 -11 -18 -24 -11 -20 11 3 16 0 19 -12 14
-11 -4 -24 2 -36 17 -12 14 -17 17 -14 7 4 -13 1 -15 -15 -11 -20 5 -20 6 -3
19 24 17 34 17 42 -3z m93 -4 c0 -5 -2 -10 -4 -10 -3 0 -8 5 -11 10 -3 6 -1
10 4 10 6 0 11 -4 11 -10z m30 -65 c0 -12 -19 -12 -23 0 -4 9 -1 12 9 8 7 -3
14 -7 14 -8z m-160 -65 c0 -5 -2 -10 -4 -10 -3 0 -8 5 -11 10 -3 6 -1 10 4 10
6 0 11 -4 11 -10z m790 -10 c13 -9 13 -11 0 -20 -8 -5 -10 -10 -4 -10 6 0 9
-10 7 -23 -4 -18 0 -23 19 -24 26 -2 50 -30 46 -53 -4 -18 -56 -26 -71 -11 -7
7 -6 16 4 27 12 16 12 17 -2 12 -9 -3 -22 -2 -29 2 -11 7 -10 13 3 34 14 21
15 24 2 20 -11 -5 -15 1 -15 25 0 32 13 39 40 21z m-602 -29 c3 -8 -1 -12 -9
-9 -7 2 -15 10 -17 17 -3 8 1 12 9 9 7 -2 15 -10 17 -17z m630 -16 c0 -13 -4
-22 -9 -20 -9 6 -8 45 2 45 4 0 7 -11 7 -25z m-688 -1 c0 -8 -4 -12 -10 -9 -5
3 -10 10 -10 16 0 5 5 9 10 9 6 0 10 -7 10 -16z m720 1 c0 -8 -4 -15 -8 -15
-5 0 -9 7 -9 15 0 8 4 15 9 15 4 0 8 -7 8 -15z m323 -42 c-7 -2 -19 -2 -25 0
-7 3 -2 5 12 5 14 0 19 -2 13 -5z m-23 -23 c0 -5 -4 -10 -10 -10 -5 0 -10 5
-10 10 0 6 5 10 10 10 6 0 10 -4 10 -10z m110 -20 c0 -5 -4 -10 -10 -10 -5 0
-10 5 -10 10 0 6 5 10 10 10 6 0 10 -4 10 -10z m-120 -19 c0 -5 -16 -12 -36
-15 -19 -4 -43 -9 -52 -12 -9 -3 3 6 28 19 43 23 60 25 60 8z"/>
<path d="M1886 8019 c-52 -41 -23 -129 43 -129 46 0 81 34 81 80 0 66 -68 93
-124 49z"/>
<path d="M4020 7926 c-425 -189 -782 -425 -1083 -715 -108 -105 -108 -105 -86
-122 17 -12 19 -18 8 -22 -10 -4 -10 -6 3 -6 9 -1 19 3 23 8 3 6 17 6 34 1 26
-7 27 -6 23 19 -4 21 -2 24 9 14 7 -7 17 -13 22 -13 4 0 5 6 1 13 -5 8 -2 7
10 -2 9 -8 15 -20 12 -28 -3 -7 -1 -13 5 -13 8 0 9 -15 5 -45 -4 -25 -5 -45
-2 -45 3 0 18 14 34 31 21 23 31 45 35 80 3 27 13 61 22 76 16 28 16 28 10
-24 -3 -29 -3 -53 1 -53 3 0 24 14 46 32 34 26 37 33 23 40 -13 8 -14 13 -4
24 12 15 33 9 24 -7 -9 -14 11 -11 22 4 13 16 8 73 -6 70 -6 -2 -11 7 -11 19
0 23 3 21 37 -24 21 -28 21 -28 44 -9 22 18 22 20 7 26 -19 8 -25 35 -8 35 6
0 10 -6 10 -14 0 -30 22 -27 67 11 53 43 61 49 164 117 41 27 77 53 81 59 3 6
12 11 20 13 7 1 40 18 73 38 33 20 63 36 66 36 19 0 155 87 152 97 -2 6 1 14
6 18 6 3 11 -1 11 -10 0 -19 8 -17 97 20 32 13 54 24 49 25 -5 0 -3 6 3 14 10
12 7 14 -23 10 -23 -3 -36 0 -36 7 0 6 6 9 14 6 8 -3 20 1 26 8 7 8 16 12 21
9 5 -3 9 -2 10 3 2 24 10 56 28 123 11 41 21 78 21 83 0 13 -24 6 -120 -37z
m80 -82 c0 -2 -9 -4 -21 -4 -11 0 -18 4 -14 10 5 8 35 3 35 -6z m-50 -4 c0 -5
-7 -10 -16 -10 -8 0 -12 5 -9 10 3 6 10 10 16 10 5 0 9 -4 9 -10z m-114 -22
c-10 -6 -20 -7 -24 -3 -9 8 20 25 31 18 5 -3 2 -10 -7 -15z m-62 -28 c-6 -6
-19 -7 -30 -3 -17 6 -17 8 6 13 29 8 38 4 24 -10z m186 -6 c0 -8 -5 -12 -10
-9 -6 4 -8 11 -5 16 9 14 15 11 15 -7z m-136 -25 c-3 -5 -10 -7 -15 -3 -5 3
-7 10 -3 15 3 5 10 7 15 3 5 -3 7 -10 3 -15z m36 7 c0 -3 -4 -8 -10 -11 -5 -3
-10 -1 -10 4 0 6 5 11 10 11 6 0 10 -2 10 -4z m-215 -36 c3 -5 2 -10 -4 -10
-5 0 -13 5 -16 10 -3 6 -2 10 4 10 5 0 13 -4 16 -10z m31 -35 c-3 -9 0 -15 9
-15 18 0 20 -16 3 -26 -7 -5 -8 -3 -3 6 6 10 4 12 -9 7 -10 -4 -20 -7 -22 -7
-3 0 -2 -5 1 -10 4 -6 11 -8 16 -5 5 4 9 1 9 -4 0 -22 -38 -11 -42 12 -6 36 2
57 24 57 14 0 18 -5 14 -15z m54 -19 c0 -3 -4 -8 -10 -11 -5 -3 -10 -1 -10 4
0 6 5 11 10 11 6 0 10 -2 10 -4z m-15 -36 c4 -6 14 -8 23 -6 10 3 24 1 32 -4
11 -8 3 -10 -29 -8 -25 2 -46 9 -49 16 -5 15 14 16 23 2z m-108 -85 c3 -9 3
-19 -1 -22 -7 -7 -36 16 -36 28 0 15 30 10 37 -6z m-310 -221 c-9 -9 -28 6
-21 18 4 6 10 6 17 -1 6 -6 8 -13 4 -17z m-247 -104 c0 -11 -4 -20 -10 -20 -5
0 -10 9 -10 20 0 11 5 20 10 20 6 0 10 -9 10 -20z m-120 -55 c0 -8 -2 -15 -4
-15 -2 0 -6 7 -10 15 -3 8 -1 15 4 15 6 0 10 -7 10 -15z m-122 -72 c5 -17 -19
-16 -43 1 -17 12 -16 13 10 12 16 -1 30 -7 33 -13z"/>
<path d="M5820 7773 c0 -14 11 -15 50 -4 23 7 22 8 -12 12 -27 4 -38 1 -38 -8z"/>
<path d="M1667 7442 c-33 -36 -8 -92 40 -92 25 0 53 30 53 57 0 46 -62 69 -93
35z"/>
<path d="M8226 7443 c-11 -11 -6 -23 9 -23 8 0 15 4 15 9 0 13 -16 22 -24 14z"/>
<path d="M6797 7399 c7 -7 15 -10 18 -7 3 3 -2 9 -12 12 -14 6 -15 5 -6 -5z"/>
<path d="M5950 7311 c0 -5 7 -11 15 -15 8 -3 15 -1 15 3 0 5 -7 11 -15 15 -8
3 -15 1 -15 -3z"/>
<path d="M8320 7120 c0 -15 5 -20 18 -18 9 2 17 10 17 18 0 8 -8 16 -17 18
-13 2 -18 -3 -18 -18z"/>
<path d="M2900 7019 c5 -18 12 -34 16 -38 4 -3 5 1 1 10 -3 9 -1 21 5 27 12
12 2 32 -17 32 -11 0 -12 -7 -5 -31z"/>
<path d="M2747 7012 c-15 -15 -27 -31 -27 -35 0 -15 30 -6 40 13 6 11 8 20 4
20 -3 0 -1 7 6 15 21 26 5 17 -23 -13z"/>
<path d="M1494 7015 c-4 -9 0 -23 8 -31 20 -20 50 -7 46 20 -4 26 -45 35 -54
11z"/>
<path d="M2780 6990 c-12 -8 -10 -10 8 -10 13 0 20 4 17 10 -7 12 -6 12 -25 0z"/>
<path d="M5950 6981 c0 -7 7 -14 15 -17 8 -4 15 -13 15 -22 0 -8 3 -12 7 -8 9
9 11 46 2 46 -4 0 -14 3 -23 6 -9 3 -16 1 -16 -5z"/>
<path d="M2900 6960 c0 -5 7 -7 15 -4 8 4 15 8 15 10 0 2 -7 4 -15 4 -8 0 -15
-4 -15 -10z"/>
<path d="M5970 6870 c0 -5 7 -10 15 -10 8 0 15 -7 15 -15 0 -8 5 -15 10 -15
11 0 13 11 4 34 -7 17 -44 22 -44 6z"/>
<path d="M1452 6753 c4 -21 33 -25 33 -3 0 8 -8 16 -18 18 -14 3 -18 -1 -15
-15z"/>
<path d="M3090 6600 c0 -5 4 -10 9 -10 6 0 13 5 16 10 3 6 -1 10 -9 10 -9 0
-16 -4 -16 -10z"/>
<path d="M6008 6503 c6 -2 18 -2 25 0 6 3 1 5 -13 5 -14 0 -19 -2 -12 -5z"/>
<path d="M8340 6490 c0 -5 5 -10 10 -10 6 0 10 5 10 10 0 6 -4 10 -10 10 -5 0
-10 -4 -10 -10z"/>
<path d="M1171 6192 c-21 -105 -70 -156 -165 -168 l-50 -7 54 -14 c29 -7 65
-19 79 -26 30 -14 59 -67 69 -128 l8 -44 22 62 c14 38 34 72 53 87 28 24 85
46 121 46 40 0 23 18 -31 33 -84 23 -131 87 -131 179 0 50 -17 38 -29 -20z"/>
<path d="M2486 6225 c-3 -8 -1 -15 4 -15 6 0 10 7 10 15 0 8 -2 15 -4 15 -2 0
-6 -7 -10 -15z"/>
<path d="M2280 6120 c0 -5 5 -10 11 -10 5 0 7 5 4 10 -3 6 -8 10 -11 10 -2 0
-4 -4 -4 -10z"/>
<path d="M3943 5957 c-68 -69 -393 -511 -472 -641 -105 -174 -156 -311 -193
-516 -23 -129 -17 -560 10 -760 36 -261 127 -688 158 -737 13 -20 23 -23 84
-23 52 0 70 3 70 14 0 17 105 293 158 414 167 380 418 703 595 763 27 9 44 19
39 23 -11 7 -69 183 -127 386 -88 306 -189 731 -236 985 -12 66 -25 126 -28
132 -5 9 -24 -4 -58 -40z"/>
<path d="M6196 5983 c-3 -16 -17 -95 -31 -178 -33 -194 -103 -518 -165 -765
-45 -179 -137 -503 -154 -541 -6 -13 0 -18 28 -23 94 -18 276 -191 405 -387
101 -152 200 -353 291 -594 40 -104 76 -194 81 -199 9 -10 99 -9 131 0 22 7
38 60 83 284 138 694 137 1218 -4 1550 -16 36 -51 103 -79 148 -128 205 -540
732 -573 732 -4 0 -10 -12 -13 -27z m54 -66 c0 -16 -20 5 -36 36 l-15 32 25
-30 c14 -16 26 -34 26 -38z"/>
<path d="M5890 5884 c0 -8 5 -12 10 -9 6 4 8 11 5 16 -9 14 -15 11 -15 -7z"/>
<path d="M5904 5516 c-8 -20 -1 -29 20 -24 13 3 13 6 1 22 -13 17 -15 18 -21
2z"/>
<path d="M4859 4385 c-107 -13 -253 -40 -270 -51 -12 -7 -11 -91 1 -114 10
-18 13 -18 73 10 79 38 172 57 339 70 215 18 472 -5 577 -51 24 -10 45 -19 47
-19 8 0 33 105 27 111 -12 11 -145 36 -255 48 -128 14 -406 12 -539 -4z"/>
<path d="M9055 4313 c-11 -77 -43 -149 -85 -191 -35 -36 -42 -40 -72 -33 -18
4 -51 5 -73 3 l-40 -5 55 -18 55 -17 -50 -1 c-27 -1 -56 -5 -64 -10 -26 -17
12 -26 99 -24 50 1 90 -3 98 -10 28 -22 64 -112 70 -169 6 -72 24 -72 33 -1
17 139 74 195 222 218 47 8 41 19 -19 34 -65 17 -117 45 -147 80 -23 27 -31
53 -53 169 -7 37 -21 25 -29 -25z"/>
<path d="M4885 4246 c-97 -14 -203 -38 -249 -56 -27 -10 -28 -12 -24 -66 3
-37 11 -62 24 -75 18 -18 26 -19 90 -10 38 6 153 16 256 23 207 13 455 1 536
-27 65 -23 94 -6 106 62 13 79 4 99 -51 116 -101 32 -155 38 -373 42 -154 3
-253 0 -315 -9z"/>
<path d="M2505 3780 c-3 -5 -1 -10 4 -10 6 0 11 5 11 10 0 6 -2 10 -4 10 -3 0
-8 -4 -11 -10z"/>
<path d="M8296 3645 c-3 -9 0 -15 9 -15 9 0 12 6 9 15 -4 8 -7 15 -9 15 -2 0
-5 -7 -9 -15z"/>
<path d="M8246 3535 c-3 -9 0 -15 9 -15 16 0 20 16 6 24 -5 3 -11 -1 -15 -9z"/>
<path d="M3027 3293 c-12 -11 -8 -23 8 -23 8 0 15 7 15 15 0 16 -12 20 -23 8z"/>
<path d="M8027 3254 c-13 -13 -7 -24 14 -24 11 0 19 5 17 12 -5 14 -22 21 -31
12z"/>
<path d="M7895 3140 c3 -5 8 -10 11 -10 2 0 4 5 4 10 0 6 -5 10 -11 10 -5 0
-7 -4 -4 -10z"/>
<path d="M1660 3120 c0 -11 6 -20 13 -20 19 0 27 10 20 26 -8 21 -33 17 -33
-6z"/>
<path d="M7810 3044 c0 -8 5 -12 10 -9 6 3 10 10 10 16 0 5 -4 9 -10 9 -5 0
-10 -7 -10 -16z"/>
<path d="M3230 3030 c0 -5 5 -10 11 -10 5 0 7 5 4 10 -3 6 -8 10 -11 10 -2 0
-4 -4 -4 -10z"/>
<path d="M7725 2980 c-3 -5 -1 -10 4 -10 6 0 11 5 11 10 0 6 -2 10 -4 10 -3 0
-8 -4 -11 -10z"/>
<path d="M7654 2879 c-3 -6 -2 -15 3 -20 5 -5 9 -1 10 11 2 22 -2 25 -13 9z"/>
<path d="M7940 2591 c0 -6 5 -13 10 -16 6 -3 10 1 10 9 0 9 -4 16 -10 16 -5 0
-10 -4 -10 -9z"/>
<path d="M7740 2415 c0 -9 5 -15 11 -13 6 2 11 8 11 13 0 5 -5 11 -11 13 -6 2
-11 -4 -11 -13z"/>
<path d="M6016 2330 c-49 -19 -78 -38 -40 -26 14 4 30 -1 48 -15 31 -24 58
-12 49 21 -3 11 0 20 6 20 6 0 11 5 11 10 0 14 -18 12 -74 -10z"/>
<path d="M5854 2245 c3 -9 6 -19 6 -21 0 -2 7 -4 16 -4 22 0 13 34 -10 38 -14
3 -17 0 -12 -13z"/>
<path d="M3046 1635 c4 -8 8 -15 10 -15 2 0 4 7 4 15 0 8 -4 15 -10 15 -5 0
-7 -7 -4 -15z"/>
<path d="M3070 1449 c0 -5 5 -7 10 -4 6 3 10 8 10 11 0 2 -4 4 -10 4 -5 0 -10
-5 -10 -11z"/>
<path d="M3097 1446 c-3 -8 -2 -18 3 -21 13 -8 24 15 12 27 -6 6 -11 4 -15 -6z"/>
<path d="M5668 1433 c-17 -19 -51 -94 -45 -100 2 -2 36 12 76 30 l73 34 -32
26 c-37 32 -51 33 -72 10z m69 -19 c-3 -3 -12 -4 -19 -1 -8 3 -5 6 6 6 11 1
17 -2 13 -5z"/>
<path d="M4618 1348 c-21 -6 -38 -14 -38 -19 0 -5 11 -4 25 1 16 6 25 6 25 0
0 -6 -5 -10 -11 -10 -5 0 -7 -4 -4 -10 3 -6 -1 -7 -10 -4 -8 4 -22 1 -29 -5
-16 -14 -32 2 -20 20 4 8 0 8 -15 0 -24 -13 -24 -14 -10 -63 10 -37 39 -54 39
-23 0 8 -4 15 -10 15 -5 0 -10 7 -10 16 0 12 6 15 23 9 37 -11 97 -13 97 -3 0
5 -4 6 -10 3 -13 -8 -13 -4 5 39 25 59 31 41 8 -22 -4 -8 1 -10 13 -5 18 7 18
6 1 -11 -9 -10 -15 -21 -12 -26 3 -5 0 -12 -6 -16 -8 -4 -9 -3 -5 4 4 7 1 12
-8 12 -9 0 -16 -6 -16 -12 -2 -53 -9 -131 -15 -148 -6 -20 -4 -21 32 -14 21 4
48 11 60 15 13 5 30 6 38 2 13 -4 15 0 11 18 -3 13 -12 59 -21 102 -28 144
-41 158 -127 135z m29 -40 c-3 -7 -5 -2 -5 12 0 14 2 19 5 13 2 -7 2 -19 0
-25z"/>
<path d="M4585 1240 c-3 -5 -2 -10 4 -10 5 0 13 5 16 10 3 6 2 10 -4 10 -5 0
-13 -4 -16 -10z"/>
<path d="M4473 1200 c-29 -50 -29 -55 3 -24 14 15 24 35 22 45 -2 15 -8 10
-25 -21z"/>
</g>
</svg>
